<?xml version="1.0" standalone="no"?><!DOCTYPE svg PUBLIC "-//W3C//DTD SVG 1.1//EN" "http://www.w3.org/Graphics/SVG/1.1/DTD/svg11.dtd"><svg t="1735718327211" class="icon" viewBox="0 0 1132 1024" version="1.1" xmlns="http://www.w3.org/2000/svg" p-id="7880" xmlns:xlink="http://www.w3.org/1999/xlink" width="221.09375" height="200"><path d="M541.648001 179.213412A335.989645 335.989645 0 1 1 302.949243 277.703473a337.662178 337.662178 0 0 1 238.856545-98.39539zM758.382939 299.793522A306.515208 306.515208 0 0 0 325.039292 733.200284a304.306204 304.306204 0 0 0 433.469876 0 304.400875 304.400875 0 0 0 0-433.469876z m0 0" p-id="7881"></path><path d="M653.234306 350.001048q46.010416 35.785879 54.530864 96.565071h-44.779685q-8.520447-43.738297-43.170267-68.16358-32.94573-22.721193-80.660236-22.721193-70.435699 0-109.061728 49.418595Q394.465161 451.268144 394.465161 526.658325q0 76.684027 35.217849 120.422325Q467.04675 694.258683 538.018922 694.258683q48.282536 0 82.364326-25.561343 36.353909-27.833462 48.282535-80.092206h44.874357q-13.632716 71.571759-63.619341 110.197788-47.146476 36.921939-111.901877 36.921939-94.292952 0-144.847607-62.483282-45.442387-55.666923-45.442387-146.551696t46.578447-148.318901Q444.956701 314.215168 539.62834 314.215168q67.690222 0 113.605966 35.78588z" p-id="7882"></path></svg>