<?xml version="1.0" standalone="no"?><!DOCTYPE svg PUBLIC "-//W3C//DTD SVG 1.1//EN" "http://www.w3.org/Graphics/SVG/1.1/DTD/svg11.dtd"><svg t="1735398077439" class="icon" viewBox="0 0 1024 1024" version="1.1" xmlns="http://www.w3.org/2000/svg" p-id="2555" xmlns:xlink="http://www.w3.org/1999/xlink" width="200" height="200"><path d="M584.789333 122.282667l256 147.797333a128 128 0 0 1 64 110.848v295.594667a128 128 0 0 1-64 110.848l-256 147.84a128 128 0 0 1-128 0l-256-147.84a128 128 0 0 1-64-110.848V380.928a128 128 0 0 1 64-110.848l256-147.797333a128 128 0 0 1 128 0z m134.4 324.352a42.666667 42.666667 0 0 0-58.965333-12.8L512 529.237333 364.629333 433.92l-4.352-2.474667a42.666667 42.666667 0 0 0-41.984 74.112l170.538667 110.293334 4.821333 2.688a42.666667 42.666667 0 0 0 41.429334-2.645334l171.306666-110.293333 4.053334-2.901333a42.666667 42.666667 0 0 0 8.746666-56.064z" fill="#0E69F0" p-id="2556"></path></svg>