<?xml version="1.0" standalone="no"?><!DOCTYPE svg PUBLIC "-//W3C//DTD SVG 1.1//EN" "http://www.w3.org/Graphics/SVG/1.1/DTD/svg11.dtd"><svg t="1735398693958" class="icon" viewBox="0 0 1024 1024" version="1.1" xmlns="http://www.w3.org/2000/svg" p-id="18114" xmlns:xlink="http://www.w3.org/1999/xlink" width="200" height="200"><path d="M579.242667 231.850667c75.861333 0 138.666667 58.88 145.066666 134.485333l0.597334 12.8v332.8c0 77.312-58.88 140.288-133.12 146.688l-12.544 0.512h-256l-102.4 94.378667c-26.88 25.429333-71.936 10.410667-77.824-24.234667l-0.597334-7.68v-64A146.773333 146.773333 0 0 1 0.512 722.773333L0 710.4V379.050667C0 301.738667 58.88 238.933333 133.12 232.448l12.458667-0.597333h433.664zM875.52 42.666667a149.333333 149.333333 0 0 1 147.968 137.813333l0.512 12.288v337.92c0 77.226667-58.624 141.397333-132.778667 147.882667l-12.458666 0.597333v65.28c0 38.058667-44.117333 57.6-73.813334 37.546667l-6.144-4.949334-36.096-33.28c13.568-22.613333 21.333333-49.237333 21.333334-77.653333V326.656a149.333333 149.333333 0 0 0-148.48-150.186667H285.610667A149.418667 149.418667 0 0 1 420.693333 43.178667L433.237333 42.666667h442.282667zM500.906667 553.472H197.461333a32.768 32.768 0 0 0-32 26.112l-0.597333 6.485333v9.813334c0 15.701333 11.178667 28.928 26.026667 32l6.570666 0.682666H502.613333a30.72 30.72 0 0 0 30.890667-26.112l0.170667-6.570666v-9.813334a32.768 32.768 0 0 0-32.682667-32.597333zM391.68 398.421333H197.461333a32.768 32.768 0 0 0-32 26.112l-0.597333 6.570667v9.728c0 15.701333 11.178667 29.013333 26.026667 32l6.570666 0.682667H391.68a32.768 32.768 0 0 0 32-26.112l0.597333-6.570667v-9.728a32.768 32.768 0 0 0-32.597333-32.682667z" p-id="18115"></path></svg>