<?xml version="1.0" standalone="no"?><!DOCTYPE svg PUBLIC "-//W3C//DTD SVG 1.1//EN" "http://www.w3.org/Graphics/SVG/1.1/DTD/svg11.dtd"><svg t="1764982861671" class="icon" viewBox="0 0 1024 1024" version="1.1" xmlns="http://www.w3.org/2000/svg" p-id="9269" xmlns:xlink="http://www.w3.org/1999/xlink" width="200" height="200"><path d="M512.704787 1022.681895c-6.566636 0-12.885487-0.746767-19.370211-0.997965l223.522968-358.091907c32.011327-42.692008 51.675057-95.154106 51.675057-152.604663 0-88.961536-45.561669-167.195974-114.530461-213.091436l322.88327 0c29.969663 65.017888 47.096842 137.184673 47.096842 213.424546C1023.98157 793.752715 795.095394 1022.681895 512.704787 1022.681895zM512.205805 256.491303c-134.523205 0-243.604451 102.347371-254.246906 233.876682L96.997133 214.338551C189.740287 84.72121 341.184526 0 512.704787 0c189.230383 0 354.100731 103.095504 442.520963 255.992321C955.22575 255.992321 302.108946 256.491303 512.205805 256.491303zM511.416716 298.145073c118.142111 0 213.88189 95.36503 213.88189 213.051163 0 117.68545-95.739779 213.093484-213.88189 213.093484-118.103885 0-213.882572-95.408034-213.882572-213.093484C297.534144 393.510103 393.312831 298.145073 511.416716 298.145073zM269.683279 590.222492c33.504179 102.303002 128.784566 176.716231 242.522526 176.716231 38.828478 0 75.283547-9.269059 108.292157-24.733419L448.229568 1018.192418c-251.87691-31.759447-446.887571-246.346465-446.887571-506.872631 0-94.739084 26.233779-183.159316 71.129911-259.235365L269.683279 590.222492z" fill="#231815" p-id="9270"></path></svg>