<?xml version="1.0" standalone="no"?><!DOCTYPE svg PUBLIC "-//W3C//DTD SVG 1.1//EN" "http://www.w3.org/Graphics/SVG/1.1/DTD/svg11.dtd"><svg t="1764983005650" class="icon" viewBox="0 0 1024 1024" version="1.1" xmlns="http://www.w3.org/2000/svg" p-id="10295" xmlns:xlink="http://www.w3.org/1999/xlink" width="200" height="200"><path d="M381.248 64c-180.48 0-327.936 122.304-327.936 273.728 0 132.48 114.56 240.128 263.488 265.6l0 177.28c0 0 386.432-230.72 386.432-450.944C703.232 157.504 561.728 64 381.248 64zM365.12 683.904 365.12 563.264C241.024 542.4 107.52 467.584 107.52 337.728c0-123.072 123.328-225.408 273.728-225.408 150.528 0 265.6 77.632 265.6 217.344C646.848 495.616 365.12 683.904 365.12 683.904zM1023.104 575.744c-9.344 108.224-101.376 188.352-227.264 198.528l-18.112 136.384-229.696-212.928c108.032-87.68 233.856-216.64 233.856-342.336 0-9.856-2.048-18.496-3.008-27.84 5.376 0.192 11.392 0.32 15.872 0.704C945.216 341.248 1033.856 451.968 1023.104 575.744z" fill="#020202" p-id="10296"></path></svg>