<?xml version="1.0" standalone="no"?><!DOCTYPE svg PUBLIC "-//W3C//DTD SVG 1.1//EN" "http://www.w3.org/Graphics/SVG/1.1/DTD/svg11.dtd"><svg t="1738374868588" class="icon" viewBox="0 0 1024 1024" version="1.1" xmlns="http://www.w3.org/2000/svg" p-id="5802" xmlns:xlink="http://www.w3.org/1999/xlink" width="200" height="200"><path d="M823.5008 718.4384H196.4032c-28.672 0.4096-51.6096 23.7568-51.6096 52.224 0 28.672 22.9376 51.8144 51.6096 52.224h627.0976c28.672-0.4096 51.6096-23.7568 51.6096-52.224 0-28.672-22.9376-52.0192-51.6096-52.224zM196.608 305.7664h627.0976c28.8768 0 52.224-23.3472 52.224-52.224s-23.3472-52.224-52.224-52.224H196.4032c-28.8768 0-52.224 23.552-52.224 52.4288 0 28.4672 23.552 52.0192 52.4288 52.0192z m626.8928 154.0096H509.952c-18.8416-0.2048-36.2496 9.6256-45.8752 26.0096-9.4208 16.1792-9.4208 36.4544 0 52.6336 9.4208 16.1792 27.0336 26.2144 45.8752 26.0096h313.5488c18.8416 0.2048 36.2496-9.6256 45.8752-26.0096 9.4208-16.1792 9.4208-36.4544 0-52.6336-9.4208-16.384-27.0336-26.4192-45.8752-26.0096z m-661.504 80.6912l129.8432 72.0896c22.9376 12.6976 51.2-3.8912 51.2-30.1056V438.272c0-26.2144-28.2624-42.8032-51.2-30.1056l-129.8432 72.0896c-23.552 13.1072-23.552 47.104 0 60.2112z m0 0" p-id="5803"></path></svg>