<?xml version="1.0" standalone="no"?><!DOCTYPE svg PUBLIC "-//W3C//DTD SVG 1.1//EN" "http://www.w3.org/Graphics/SVG/1.1/DTD/svg11.dtd"><svg t="1735398838901" class="icon" viewBox="0 0 1117 1024" version="1.1" xmlns="http://www.w3.org/2000/svg" p-id="19271" xmlns:xlink="http://www.w3.org/1999/xlink" width="218.1640625" height="200"><path d="M86.02161 4.675088C41.14077 4.675088 4.675088 40.829098 4.675088 85.242429v789.310607c0 44.413331 36.465683 80.567341 81.346522 80.567341H403.615888l1.402526 1.402527c41.296606 40.361589 95.839294 62.646173 153.654543 62.802008 57.659413-0.155836 112.2021-22.44042 153.498706-62.802008l1.402527-1.402527h317.594278c44.725004 0 81.190686-36.15401 81.190686-80.567341V85.242429c0-21.349566-8.259321-41.452443-23.531274-56.724395-15.427789-15.427789-35.842338-23.842946-57.659412-23.842946H730.092832c-65.607061 0-128.40907 31.16725-167.835641 83.684066l-3.74007 4.98676-3.74007-4.98676C515.350479 35.842338 452.548471 4.675088 387.097245 4.675088H86.02161z m472.495511 938.601734c-41.608279 0-81.502359-18.388678-109.085375-50.646781-7.324304-8.415158-17.921169-13.246081-29.141379-13.246081H81.346523V80.567341h305.43905c73.55471 0 133.551666 59.529448 133.551666 132.616649v487.455791c0 20.882058 17.141988 37.868209 38.335718 37.868209h0.311672c9.97352 0 19.791204-4.051743 26.803835-11.064374 7.168468-7.012631 11.22021-16.830315 11.22021-26.959671V213.18399c0-73.243038 59.84112-132.616649 133.395831-132.616649h305.43905v4.675088l-0.155836 789.310607h-4.675088v4.675088H696.743875c-11.376046 0-21.972911 4.830924-28.985543 13.246081-28.050525 32.258104-67.788769 50.802618-109.241211 50.802617z" fill="#232323" p-id="19272"></path><path d="M304.504033 355.929995c38.335718 0 75.580581 6.700959 108.773703 22.128748 14.492771 6.700959 28.050525 13.246081 40.829097 22.596256 0.779181-50.646781 0.779181-51.425963 0.779181-61.08781-13.869426-10.752701-25.557145-18.388678-41.608278-25.868817-33.193121-15.427789-70.437985-20.726221-108.773703-20.570385H147.265256v62.802008h157.238777zM304.504033 616.020697c38.335718 0 75.580581 6.700959 108.773703 22.128748 14.492771 6.700959 28.050525 13.246081 40.829097 22.596256 0.779181-50.646781 0.779181-51.425963 0.779181-61.08781-13.869426-10.752701-25.557145-18.388678-41.608278-25.868818-33.193121-15.427789-70.437985-20.726221-108.773703-20.570385H147.265256v62.802009h157.238777zM821.257039 355.929995c-38.335718 0-75.580581 6.700959-108.773703 22.128748-14.492771 6.700959-28.050525 13.246081-40.829098 22.596256-0.779181-50.646781-0.779181-51.425963-0.779181-61.08781 13.869426-10.752701 25.557145-18.388678 41.608279-25.868817 33.193121-15.427789 70.437985-20.726221 108.773703-20.570385h157.238776v62.802008H821.257039zM821.257039 616.020697c-38.335718 0-75.580581 6.700959-108.773703 22.128748-14.492771 6.700959-28.050525 13.246081-40.829098 22.596256-0.779181-50.646781-0.779181-51.425963-0.779181-61.08781 13.869426-10.752701 25.557145-18.388678 41.608279-25.868818 33.193121-15.427789 70.437985-20.726221 108.773703-20.570385h157.238776v62.802009H821.257039z" fill="#232323" p-id="19273"></path></svg>